<svg xmlns="http://www.w3.org/2000/svg">
  <symbol id="bluesky-icon" viewBox="0 0 16 17">
    <g clip-path="url(#bluesky-clip)"><path fill="#08060d" d="M7.75 7.735c-.693-1.348-2.58-3.86-4.334-5.097-1.68-1.187-2.32-.981-2.74-.79C.188 2.065.1 2.812.1 3.251s.241 3.602.398 4.13c.52 1.744 2.367 2.333 4.07 2.145-2.495.37-4.71 1.278-1.805 4.512 3.196 3.309 4.38-.71 4.987-2.746.608 2.036 1.307 5.91 4.93 2.746 2.72-2.746.747-4.143-1.747-4.512 1.702.189 3.55-.4 4.07-2.145.156-.528.397-3.691.397-4.13s-.088-1.186-.575-1.406c-.42-.19-1.06-.395-2.741.79-1.755 1.24-3.64 3.752-4.334 5.099"/></g>
    <defs><clipPath id="bluesky-clip"><path fill="#fff" d="M.1.85h15.3v15.3H.1z"/></clipPath></defs>
  </symbol>
  <symbol id="discord-icon" viewBox="0 0 20 19">
    <path fill="#08060d" d="M16.224 3.768a14.5 14.5 0 0 0-3.67-1.153c-.158.286-.343.67-.47.976a13.5 13.5 0 0 0-4.067 0c-.128-.306-.317-.69-.476-.976A14.4 14.4 0 0 0 3.868 3.77C1.546 7.28.916 10.703 1.231 14.077a14.7 14.7 0 0 0 4.5 2.306q.545-.748.965-1.587a9.5 9.5 0 0 1-1.518-.74q.191-.14.372-.293c2.927 1.369 6.107 1.369 8.999 0q.183.152.372.294-.723.437-1.52.74.418.838.963 1.588a14.6 14.6 0 0 0 4.504-2.308c.37-3.911-.63-7.302-2.644-10.309m-9.13 8.234c-.878 0-1.599-.82-1.599-1.82 0-.998.705-1.82 1.6-1.82.894 0 1.614.82 1.599 1.82.001 1-.705 1.82-1.6 1.82m5.91 0c-.878 0-1.599-.82-1.599-1.82 0-.998.705-1.82 1.6-1.82.893 0 1.614.82 1.599 1.82 0 1-.706 1.82-1.6 1.82"/>
  </symbol>
  <symbol id="documentation-icon" viewBox="0 0 21 20">
    <path fill="none" stroke="#aa3bff" stroke-linecap="round" stroke-linejoin="round" stroke-width="1.35" d="m15.5 13.333 1.533 1.322c.645.555.967.833.967 1.178s-.322.623-.967 1.179L15.5 18.333m-3.333-5-1.534 1.322c-.644.555-.966.833-.966 1.178s.322.623.966 1.179l1.534 1.321"/>
    <path fill="none" stroke="#aa3bff" stroke-linecap="round" stroke-linejoin="round" stroke-width="1.35" d="M17.167 10.836v-4.32c0-1.41 0-2.117-.224-2.68-.359-.906-1.118-1.621-2.08-1.96-.599-.21-1.349-.21-2.848-.21-2.623 0-3.935 0-4.983.369-1.684.591-3.013 1.842-3.641 3.428C3 6.449 3 7.684 3 10.154v2.122c0 2.558 0 3.838.706 4.726q.306.383.713.671c.76.536 1.79.64 3.581.66"/>
    <path fill="none" stroke="#aa3bff" stroke-linecap="round" stroke-linejoin="round" stroke-width="1.35" d="M3 10a2.78 2.78 0 0 1 2.778-2.778c.555 0 1.209.097 1.748-.047.48-.129.854-.503.982-.982.145-.54.048-1.194.048-1.749a2.78 2.78 0 0 1 2.777-2.777"/>
  </symbol>
  <symbol id="github-icon" viewBox="0 0 19 19">
    <path fill="#08060d" fill-rule="evenodd" d="M9.356 1.85C5.05 1.85 1.57 5.356 1.57 9.694a7.84 7.84 0 0 0 5.324 7.44c.387.079.528-.168.528-.376 0-.182-.013-.805-.013-1.454-2.165.467-2.616-.935-2.616-.935-.349-.91-.864-1.143-.864-1.143-.71-.48.051-.48.051-.48.787.051 1.2.805 1.2.805.695 1.194 1.817.857 2.268.649.064-.507.27-.857.49-1.052-1.728-.182-3.545-.857-3.545-3.87 0-.857.31-1.558.8-2.104-.078-.195-.349-1 .077-2.078 0 0 .657-.208 2.14.805a7.5 7.5 0 0 1 1.946-.26c.657 0 1.328.092 1.946.26 1.483-1.013 2.14-.805 2.14-.805.426 1.078.155 1.883.078 2.078.502.546.799 1.247.799 2.104 0 3.013-1.818 3.675-3.558 3.87.284.247.528.714.528 1.454 0 1.052-.012 1.896-.012 2.156 0 .208.142.455.528.377a7.84 7.84 0 0 0 5.324-7.441c.013-4.338-3.48-7.844-7.773-7.844" clip-rule="evenodd"/>
  </symbol>
  <symbol id="social-icon" viewBox="0 0 20 20">
    <path fill="none" stroke="#aa3bff" stroke-linecap="round" stroke-linejoin="round" stroke-width="1.35" d="M12.5 6.667a4.167 4.167 0 1 0-8.334 0 4.167 4.167 0 0 0 8.334 0"/>
    <path fill="none" stroke="#aa3bff" stroke-linecap="round" stroke-linejoin="round" stroke-width="1.35" d="M2.5 16.667a5.833 5.833 0 0 1 8.75-5.053m3.837.474.513 1.035c.07.144.257.282.414.309l.93.155c.596.1.736.536.307.965l-.723.73a.64.64 0 0 0-.152.531l.207.903c.164.715-.213.991-.84.618l-.872-.52a.63.63 0 0 0-.577 0l-.872.52c-.624.373-1.003.094-.84-.618l.207-.903a.64.64 0 0 0-.152-.532l-.723-.729c-.426-.43-.289-.864.306-.964l.93-.156a.64.64 0 0 0 .412-.31l.513-1.034c.28-.562.735-.562 1.012 0"/>
  </symbol>
  <symbol id="x-icon" viewBox="0 0 19 19">
    <path fill="#08060d" fill-rule="evenodd" d="M1.893 1.98c.052.072 1.245 1.769 2.653 3.77l2.892 4.114c.183.261.333.48.333.486s-.068.089-.152.183l-.522.593-.765.867-3.597 4.087c-.375.426-.734.834-.798.905a1 1 0 0 0-.118.148c0 .01.236.017.664.017h.663l.729-.83c.4-.457.796-.906.879-.999a692 692 0 0 0 1.794-2.038c.034-.037.301-.34.594-.675l.551-.624.345-.392a7 7 0 0 1 .34-.374c.006 0 .93 1.306 2.052 2.903l2.084 2.965.045.063h2.275c1.87 0 2.273-.003 2.266-.021-.008-.02-1.098-1.572-3.894-5.547-2.013-2.862-2.28-3.246-2.273-3.266.008-.019.282-.332 2.085-2.38l2-2.274 1.567-1.782c.022-.028-.016-.03-.65-.03h-.674l-.3.342a871 871 0 0 1-1.782 2.025c-.067.075-.405.458-.75.852a100 100 0 0 1-.803.91c-.148.172-.299.344-.99 1.127-.304.343-.32.358-.345.327-.015-.019-.904-1.282-1.976-2.808L6.365 1.85H1.8zm1.782.91 8.078 11.294c.772 1.08 1.413 1.973 1.425 1.984.016.017.241.02 1.05.017l1.03-.004-2.694-3.766L7.796 5.75 5.722 2.852l-1.039-.004-1.039-.004z" clip-rule="evenodd"/>
  </symbol>
  <symbol id="icon-arrow-path" viewBox="0 0 24 24">
    <path fill="none" stroke="#000000" stroke-linecap="round" stroke-linejoin="round" stroke-width="1.5" d="M16.023 9.348h4.992v-.001M2.985 19.644v-4.992m0 0h4.992m-4.993 0l3.181 3.183a8.25 8.25 0 0 0 13.803-3.7M4.031 9.865a8.25 8.25 0 0 1 13.803-3.7l3.181 3.182m0-4.991v4.99"/>
  </symbol>
  <symbol id="icon-trending-up" viewBox="0 0 24 24">
    <path fill="none" stroke="#000000" stroke-linecap="round" stroke-linejoin="round" stroke-width="1.5" d="M2.25 18L9 11.25l4.306 4.307a11.95 11.95 0 0 1 5.814-5.519l2.74-1.22m0 0l-5.94-2.28m5.94 2.28l-2.28 5.941"/>
  </symbol>
  <symbol id="icon-arrow-trending-up" viewBox="0 0 24 24">
    <path fill="none" stroke="#000000" stroke-linecap="round" stroke-linejoin="round" stroke-width="1.5" d="M2.25 18L9 11.25l4.306 4.307a11.95 11.95 0 0 1 5.814-5.519l2.74-1.22m0 0l-5.94-2.28m5.94 2.28l-2.28 5.941"/>
  </symbol>
  <symbol id="icon-data-mining" viewBox="0 0 24 24">
    <g fill="none" stroke="#000000" stroke-linecap="round" stroke-linejoin="round" stroke-width="1.5"><path d="M10.5 6a7.5 7.5 0 1 0 7.5 7.5h-7.5V6Z"/><path d="M13.5 10.5H21A7.5 7.5 0 0 0 13.5 3v7.5Z"/></g>
  </symbol>
  <symbol id="icon-chart-pie" viewBox="0 0 24 24">
    <g fill="none" stroke="#000000" stroke-linecap="round" stroke-linejoin="round" stroke-width="1.5"><path d="M10.5 6a7.5 7.5 0 1 0 7.5 7.5h-7.5V6Z"/><path d="M13.5 10.5H21A7.5 7.5 0 0 0 13.5 3v7.5Z"/></g>
  </symbol>
  <symbol id="icon-chevron-down" viewBox="0 0 24 24">
    <path fill="none" stroke="#000000" stroke-linecap="round" stroke-linejoin="round" stroke-width="1.5" d="m19.5 8.25l-7.5 7.5l-7.5-7.5"/>
  </symbol>
  <symbol id="icon-chevron-left" viewBox="0 0 24 24">
    <path fill="none" stroke="#000000" stroke-linecap="round" stroke-linejoin="round" stroke-width="1.5" d="M15.75 19.5L8.25 12l7.5-7.5"/>
  </symbol>
  <symbol id="icon-chevron-right" viewBox="0 0 24 24">
    <path fill="none" stroke="#000000" stroke-linecap="round" stroke-linejoin="round" stroke-width="1.5" d="m8.25 4.5l7.5 7.5l-7.5 7.5"/>
  </symbol>
  <symbol id="icon-chevron-up-solid" viewBox="0 0 24 24">
    <path fill="#000000" fill-rule="evenodd" d="M11.47 7.72a.75.75 0 0 1 1.06 0l7.5 7.5a.75.75 0 1 1-1.06 1.06L12 9.31l-6.97 6.97a.75.75 0 0 1-1.06-1.06l7.5-7.5Z" clip-rule="evenodd"/>
  </symbol>
  <symbol id="icon-chevron-up" viewBox="0 0 24 24">
    <path fill="none" stroke="#000000" stroke-linecap="round" stroke-linejoin="round" stroke-width="1.5" d="m4.5 15.75l7.5-7.5l7.5 7.5"/>
  </symbol>
  <symbol id="icon-secure-guard" viewBox="0 0 24 24">
    <g fill="none" stroke="#000000" stroke-linecap="round" stroke-linejoin="round" stroke-width="1.5"><path d="M10.343 3.94c.09-.542.56-.94 1.11-.94h1.093c.55 0 1.02.398 1.11.94l.149.894c.07.424.384.764.78.93c.398.164.855.142 1.205-.108l.737-.527a1.125 1.125 0 0 1 1.45.12l.773.774c.39.389.44 1.002.12 1.45l-.527.737c-.25.35-.272.806-.107 1.204c.165.397.505.71.93.78l.893.15c.543.09.94.56.94 1.109v1.094c0 .55-.397 1.02-.94 1.11l-.893.149c-.425.07-.765.383-.93.78c-.165.398-.143.854.107 1.204l.527.738c.32.447.269 1.06-.12 1.45l-.774.773a1.125 1.125 0 0 1-1.449.12l-.738-.527c-.35-.25-.806-.272-1.203-.107c-.397.165-.71.505-.781.929l-.149.894c-.09.542-.56.94-1.11.94h-1.094c-.55 0-1.019-.398-1.11-.94l-.148-.894c-.071-.424-.384-.764-.781-.93c-.398-.164-.854-.142-1.204.108l-.738.527c-.447.32-1.06.269-1.45-.12l-.773-.774a1.125 1.125 0 0 1-.12-1.45l.527-.737c.25-.35.273-.806.108-1.204c-.165-.397-.505-.71-.93-.78l-.894-.15c-.542-.09-.94-.56-.94-1.109v-1.094c0-.55.398-1.02.94-1.11l.894-.149c.424-.07.765-.383.93-.78c.165-.398.143-.854-.107-1.204l-.527-.738a1.125 1.125 0 0 1 .12-1.45l.773-.773a1.125 1.125 0 0 1 1.45-.12l.737.527c.35.25.807.272 1.204.107c.397-.165.71-.505.78-.929l.15-.894Z"/><path d="M15 12a3 3 0 1 1-6 0a3 3 0 0 1 6 0Z"/></g>
  </symbol>
  <symbol id="icon-cog-8-tooth" viewBox="0 0 24 24">
    <g fill="none" stroke="#000000" stroke-linecap="round" stroke-linejoin="round" stroke-width="1.5"><path d="M10.343 3.94c.09-.542.56-.94 1.11-.94h1.093c.55 0 1.02.398 1.11.94l.149.894c.07.424.384.764.78.93c.398.164.855.142 1.205-.108l.737-.527a1.125 1.125 0 0 1 1.45.12l.773.774c.39.389.44 1.002.12 1.45l-.527.737c-.25.35-.272.806-.107 1.204c.165.397.505.71.93.78l.893.15c.543.09.94.56.94 1.109v1.094c0 .55-.397 1.02-.94 1.11l-.893.149c-.425.07-.765.383-.93.78c-.165.398-.143.854.107 1.204l.527.738c.32.447.269 1.06-.12 1.45l-.774.773a1.125 1.125 0 0 1-1.449.12l-.738-.527c-.35-.25-.806-.272-1.203-.107c-.397.165-.71.505-.781.929l-.149.894c-.09.542-.56.94-1.11.94h-1.094c-.55 0-1.019-.398-1.11-.94l-.148-.894c-.071-.424-.384-.764-.781-.93c-.398-.164-.854-.142-1.204.108l-.738.527c-.447.32-1.06.269-1.45-.12l-.773-.774a1.125 1.125 0 0 1-.12-1.45l.527-.737c.25-.35.273-.806.108-1.204c-.165-.397-.505-.71-.93-.78l-.894-.15c-.542-.09-.94-.56-.94-1.109v-1.094c0-.55.398-1.02.94-1.11l.894-.149c.424-.07.765-.383.93-.78c.165-.398.143-.854-.107-1.204l-.527-.738a1.125 1.125 0 0 1 .12-1.45l.773-.773a1.125 1.125 0 0 1 1.45-.12l.737.527c.35.25.807.272 1.204.107c.397-.165.71-.505.78-.929l.15-.894Z"/><path d="M15 12a3 3 0 1 1-6 0a3 3 0 0 1 6 0Z"/></g>
  </symbol>
  <symbol id="icon-cloud-scale" viewBox="0 0 16 16">
    <path fill="#000000" d="M8.372 1.349a.75.75 0 0 0-.744 0l-4.81 2.748L8 7.131l5.182-3.034zM14 5.357L8.75 8.43v6.005l4.872-2.784A.75.75 0 0 0 14 11zm-6.75 9.078V8.43L2 5.357V11c0 .27.144.518.378.651z"/>
  </symbol>
  <symbol id="icon-cube-16-solid" viewBox="0 0 16 16">
    <path fill="#000000" d="M8.372 1.349a.75.75 0 0 0-.744 0l-4.81 2.748L8 7.131l5.182-3.034zM14 5.357L8.75 8.43v6.005l4.872-2.784A.75.75 0 0 0 14 11zm-6.75 9.078V8.43L2 5.357V11c0 .27.144.518.378.651z"/>
  </symbol>
  <symbol id="icon-agent-build" viewBox="0 0 24 24">
    <path fill="#000000" fill-rule="evenodd" d="M19.902 4.098a3.75 3.75 0 0 0-5.304 0l-4.5 4.5a3.75 3.75 0 0 0 1.035 6.037a.75.75 0 0 1-.646 1.353a5.25 5.25 0 0 1-1.449-8.45l4.5-4.5a5.25 5.25 0 1 1 7.424 7.424l-1.757 1.757a.75.75 0 1 1-1.06-1.06l1.757-1.757a3.75 3.75 0 0 0 0-5.304Zm-7.389 4.267a.75.75 0 0 1 1-.353a5.25 5.25 0 0 1 1.449 8.45l-4.5 4.5a5.25 5.25 0 1 1-7.424-7.424l1.757-1.757a.75.75 0 1 1 1.06 1.06l-1.757 1.757a3.75 3.75 0 1 0 5.304 5.304l4.5-4.5a3.75 3.75 0 0 0-1.035-6.037a.75.75 0 0 1-.354-1Z" clip-rule="evenodd"/>
  </symbol>
  <symbol id="icon-link-solid" viewBox="0 0 24 24">
    <path fill="#000000" fill-rule="evenodd" d="M19.902 4.098a3.75 3.75 0 0 0-5.304 0l-4.5 4.5a3.75 3.75 0 0 0 1.035 6.037a.75.75 0 0 1-.646 1.353a5.25 5.25 0 0 1-1.449-8.45l4.5-4.5a5.25 5.25 0 1 1 7.424 7.424l-1.757 1.757a.75.75 0 1 1-1.06-1.06l1.757-1.757a3.75 3.75 0 0 0 0-5.304Zm-7.389 4.267a.75.75 0 0 1 1-.353a5.25 5.25 0 0 1 1.449 8.45l-4.5 4.5a5.25 5.25 0 1 1-7.424-7.424l1.757-1.757a.75.75 0 1 1 1.06 1.06l-1.757 1.757a3.75 3.75 0 1 0 5.304 5.304l4.5-4.5a3.75 3.75 0 0 0-1.035-6.037a.75.75 0 0 1-.354-1Z" clip-rule="evenodd"/>
  </symbol>
  <symbol id="icon-agent-build-outline" viewBox="0 0 24 24">
    <path fill="none" stroke="#000000" stroke-linecap="round" stroke-linejoin="round" stroke-width="1.5" d="M13.19 8.688a4.5 4.5 0 0 1 1.242 7.244l-4.5 4.5a4.5 4.5 0 0 1-6.364-6.364l1.757-1.757m13.35-.622l1.757-1.757a4.5 4.5 0 0 0-6.364-6.364l-4.5 4.5a4.5 4.5 0 0 0 1.242 7.244"/>
  </symbol>
  <symbol id="icon-link" viewBox="0 0 24 24">
    <path fill="none" stroke="#000000" stroke-linecap="round" stroke-linejoin="round" stroke-width="1.5" d="M13.19 8.688a4.5 4.5 0 0 1 1.242 7.244l-4.5 4.5a4.5 4.5 0 0 1-6.364-6.364l1.757-1.757m13.35-.622l1.757-1.757a4.5 4.5 0 0 0-6.364-6.364l-4.5 4.5a4.5 4.5 0 0 0 1.242 7.244"/>
  </symbol>
  <symbol id="icon-search" viewBox="0 0 20 20">
    <path fill="#000000" d="M12.9 14.32a8 8 0 1 1 1.41-1.41l5.35 5.33l-1.42 1.42l-5.33-5.34zM8 14A6 6 0 1 0 8 2a6 6 0 0 0 0 12z"/>
  </symbol>
  <symbol id="icon-x-mark" viewBox="0 0 24 24">
    <path fill="none" stroke="#000000" stroke-linecap="round" stroke-linejoin="round" stroke-width="1.5" d="M6 18L18 6M6 6l12 12"/>
  </symbol>
</svg>
